<?xml version="1.0" standalone="no"?>
<!DOCTYPE svg PUBLIC "-//W3C//DTD SVG 20010904//EN"
 "http://www.w3.org/TR/2001/REC-SVG-20010904/DTD/svg10.dtd">
<svg version="1.0" xmlns="http://www.w3.org/2000/svg"
 width="140.000000pt" height="140.000000pt" viewBox="0 0 140.000000 140.000000"
 preserveAspectRatio="xMidYMid meet">
<metadata>
Created by potrace 1.11, written by Peter Selinger 2001-2013
</metadata>
<g transform="translate(0.000000,140.000000) scale(0.100000,-0.100000)"
fill="#000000" stroke="none">
<path d="M700 1263 l0 -110 39 -1 c64 -3 164 -39 225 -83 223 -160 253 -487
63 -682 -79 -82 -161 -122 -271 -136 l-51 -6 -3 -109 -3 -108 64 6 c154 14
293 81 408 195 127 128 189 268 195 447 7 197 -55 353 -196 494 -118 118 -248
181 -407 196 l-63 6 0 -109z"/>
<path d="M517 1345 c-101 -28 -198 -86 -283 -170 -134 -133 -194 -269 -200
-455 -3 -118 15 -206 62 -307 81 -171 249 -312 429 -358 32 -8 63 -15 67 -15
4 0 8 70 8 155 l0 155 73 1 c91 1 110 4 173 33 74 34 129 88 166 164 30 60 33
76 33 152 0 70 -5 95 -27 141 -36 78 -86 130 -164 169 -58 30 -78 35 -160 38
l-94 4 0 154 c0 174 6 163 -83 139z"/>
</g>
</svg>
